<svg
                class="sns__social__svg"
                width="30"
                height="30"
                viewBox="0 0 684 684"
                fill="none"
                xmlns="http://www.w3.org/2000/svg"
              >
                <path
                  d="M341.766 683.532C530.518 683.532 683.532 530.518 683.532 341.766C683.532 153.014 530.518 0 341.766 0C153.014 0 0 153.014 0 341.766C0 530.518 153.014 683.532 341.766 683.532Z"
                  fill="url(#paint0_linear_120_86)"
                />
                <path
                  fill-rule="evenodd"
                  clip-rule="evenodd"
                  d="M154.38 338.04C253.929 294.387 320.472 266.173 354.01 252.332C448.768 212.938 468.465 206.018 481.241 205.486C483.903 205.486 490.291 206.018 494.55 209.212C497.744 211.874 498.808 215.6 499.341 218.262C499.873 220.924 500.405 226.779 499.873 231.571C494.55 285.338 472.723 416.827 461.012 476.982C456.221 502.535 446.638 511.052 437.588 512.117C417.892 513.714 402.454 498.808 383.289 486.564C353.478 466.868 336.443 454.624 307.164 435.459C273.626 413.101 295.452 400.857 314.617 381.16C319.408 375.836 407.245 296.517 408.842 289.064C408.842 287.999 409.374 284.805 407.245 283.208C405.115 281.611 402.454 282.143 400.324 282.676C397.13 283.208 349.219 315.149 256.058 377.966C242.217 387.548 229.974 391.807 218.794 391.807C206.55 391.807 183.127 384.886 165.56 379.03C144.266 372.11 127.231 368.383 128.828 356.672C129.892 350.816 138.41 344.428 154.38 338.04Z"
                  fill="white"
                />
                <defs>
                  <linearGradient
                    id="paint0_linear_120_86"
                    x1="0"
                    y1="341.519"
                    x2="683.038"
                    y2="341.519"
                    gradientUnits="userSpaceOnUse"
                  >
                    <stop offset="1" />
                  </linearGradient>
                </defs>
              </svg>