<svg
                class="sns__social__svg"
                width="30"
                height="30"
                viewBox="0 0 683 683"
                fill="none"
                xmlns="http://www.w3.org/2000/svg"
              >
                <path
                  d="M200.065 2.38837C163.729 4.1027 138.916 9.90137 117.224 18.4252C94.7736 27.1744 75.7453 38.9152 56.8125 57.9163C37.8797 76.9173 26.2209 95.9594 17.5332 118.444C9.12543 140.184 3.42921 165.017 1.82416 201.374C0.219114 237.73 -0.136046 249.416 0.0415337 342.154C0.219114 434.891 0.628914 446.516 2.39105 482.947C4.12587 519.276 9.90405 544.082 18.4279 565.781C27.1908 588.232 38.9179 607.253 57.9258 626.193C76.9337 645.132 95.9621 656.764 118.501 665.465C140.22 673.859 165.061 679.583 201.41 681.174C237.76 682.766 249.459 683.134 342.17 682.957C434.88 682.779 446.553 682.369 482.977 680.641C519.402 678.913 544.078 673.094 565.784 664.611C588.234 655.828 607.27 644.121 626.195 625.107C645.121 606.092 656.773 587.036 665.454 564.538C673.869 542.819 679.586 517.978 681.163 481.656C682.755 445.205 683.13 433.566 682.953 340.842C682.775 248.118 682.359 236.493 680.631 200.076C678.903 163.658 673.118 138.927 664.601 117.214C655.824 94.7641 644.111 75.7562 625.109 56.803C606.108 37.8497 587.039 26.2046 564.548 17.5441C542.815 9.13641 517.988 3.40604 481.638 1.83514C445.289 0.264239 433.589 -0.138731 340.845 0.0388494C248.1 0.216429 236.489 0.612569 200.065 2.38837ZM204.054 619.738C170.757 618.29 152.678 612.758 140.63 608.127C124.675 601.98 113.31 594.549 101.303 582.658C89.296 570.767 81.9196 559.361 75.6906 543.44C71.0121 531.392 65.3773 513.334 63.8201 480.038C62.1262 444.05 61.7711 433.245 61.573 342.072C61.3749 250.898 61.7233 240.107 63.301 204.106C64.7216 170.837 70.2881 152.737 74.912 140.696C81.059 124.72 88.4627 113.376 100.381 101.376C112.299 89.3752 123.671 81.9852 139.606 75.7562C151.64 71.0572 169.699 65.4702 202.981 63.8857C238.996 62.1782 249.787 61.8367 340.947 61.6386C432.107 61.4405 442.926 61.782 478.954 63.3666C512.223 64.8146 530.33 70.3264 542.357 74.9776C558.319 81.1246 569.677 88.5078 581.678 100.447C593.678 112.386 601.075 123.716 607.304 139.685C612.01 151.685 617.596 169.737 619.167 203.04C620.882 239.055 621.271 249.853 621.435 341.006C621.599 432.159 621.278 442.985 619.7 478.972C618.245 512.268 612.727 530.354 608.089 542.416C601.942 558.364 594.532 569.736 582.606 581.729C570.681 593.723 559.323 601.113 543.382 607.342C531.361 612.034 513.282 617.635 480.027 619.219C444.012 620.913 433.221 621.268 342.026 621.466C250.832 621.664 240.075 621.296 204.06 619.738M482.451 158.98C482.465 167.085 484.882 175.005 489.397 181.737C493.911 188.469 500.321 193.711 507.815 196.799C515.309 199.888 523.551 200.685 531.498 199.09C539.445 197.494 546.74 193.578 552.462 187.835C558.183 182.093 562.072 174.784 563.639 166.831C565.205 158.878 564.378 150.639 561.262 143.157C558.145 135.674 552.88 129.283 546.132 124.793C539.383 120.303 531.455 117.915 523.349 117.931C512.483 117.953 502.07 122.29 494.401 129.987C486.731 137.685 482.433 148.114 482.451 158.98ZM166.154 341.839C166.345 438.689 245 517.022 341.828 516.838C438.657 516.653 517.045 438.006 516.861 341.156C516.676 244.307 438.002 165.953 341.159 166.144C244.317 166.336 165.97 245.004 166.154 341.839ZM227.665 341.716C227.62 319.202 234.253 297.18 246.725 278.435C259.196 259.69 276.946 245.064 297.729 236.407C318.513 227.75 341.397 225.451 363.487 229.799C385.578 234.148 405.883 244.949 421.835 260.838C437.786 276.727 448.668 296.989 453.104 319.062C457.541 341.135 455.332 364.028 446.757 384.846C438.182 405.664 423.627 423.471 404.931 436.017C386.236 448.562 364.24 455.282 341.726 455.327C326.776 455.358 311.967 452.444 298.144 446.751C284.32 441.059 271.754 432.698 261.162 422.148C250.57 411.598 242.16 399.065 236.413 385.264C230.665 371.464 227.693 356.666 227.665 341.716Z"
                  fill="black"
                />
              </svg>